<svg t="1736133022278" class="icon" viewBox="0 0 1024 1024" version="1.1" xmlns="http://www.w3.org/2000/svg" p-id="4848" width="200" height="200">
  <path d="M512 512m-85.36064 0a85.36064 85.36064 0 1 0 170.72128 0 85.36064 85.36064 0 1 0-170.72128 0Z" fill="#FFFFFF" p-id="4849"></path>
  <path d="M259.35872 259.35872m-85.36064 0a85.36064 85.36064 0 1 0 170.72128 0 85.36064 85.36064 0 1 0-170.72128 0Z" fill="#FFFFFF" fill-opacity=".2" p-id="4850"></path>
  <path d="M764.64128 259.35872m-85.36064 0a85.36064 85.36064 0 1 0 170.72128 0 85.36064 85.36064 0 1 0-170.72128 0Z" fill="#FFFFFF" fill-opacity=".2" p-id="4851"></path>
  <path d="M764.64128 512m-85.36064 0a85.36064 85.36064 0 1 0 170.72128 0 85.36064 85.36064 0 1 0-170.72128 0Z" fill="#FFFFFF" p-id="4852"></path>
  <path d="M764.64128 764.64128m-85.36064 0a85.36064 85.36064 0 1 0 170.72128 0 85.36064 85.36064 0 1 0-170.72128 0Z" fill="#FFFFFF" fill-opacity=".2" p-id="4853"></path>
  <path d="M512 259.35872m-85.36064 0a85.36064 85.36064 0 1 0 170.72128 0 85.36064 85.36064 0 1 0-170.72128 0Z" fill="#FFFFFF" fill-opacity=".2" p-id="4854"></path>
  <path d="M259.35872 764.64128m-85.36064 0a85.36064 85.36064 0 1 0 170.72128 0 85.36064 85.36064 0 1 0-170.72128 0Z" fill="#FFFFFF" fill-opacity=".2" p-id="4855"></path>
  <path d="M259.35872 512m-85.36064 0a85.36064 85.36064 0 1 0 170.72128 0 85.36064 85.36064 0 1 0-170.72128 0Z" fill="#FFFFFF" p-id="4856"></path>
  <path d="M512 764.64128m-85.36064 0a85.36064 85.36064 0 1 0 170.72128 0 85.36064 85.36064 0 1 0-170.72128 0Z" fill="#FFFFFF" p-id="4857"></path>
</svg>
